<?xml version="1.0" encoding="UTF-8"?>
<!-- Generator: Adobe Illustrator 22.0.0, SVG Export Plug-In . SVG Version: 6.00 Build 0)  -->
<svg version="1.1" id="Layer_1" xmlns="http://www.w3.org/2000/svg" xmlns:xlink="http://www.w3.org/1999/xlink" x="0px" y="0px" viewBox="0 0 841.9 281.6" style="enable-background:new 0 0 841.9 281.6;" xml:space="preserve">
<style type="text/css">
	.st0{fill-rule:evenodd;clip-rule:evenodd;fill:#0088C1;}
</style>
<g>
	<g>
		<path class="st0" d="M276,178.3V93c0-3.1,0.9-6.1,2.8-9c1.8-2.9,4.2-5.3,7.2-7.1c3-1.8,6-2.7,9-2.7h8.6c3.2,0,6.2,0.9,9.2,2.8    c2.9,1.9,5.3,4.3,7.1,7.3c1.8,3,2.7,6.1,2.7,9.3v85.9c0,3.4-0.9,6.5-2.6,9.3c-1.7,2.8-4,5.1-7,6.8c-2.9,1.7-6.1,2.5-9.4,2.5h-9.2    c-3.2,0-6.3-1-9.1-2.9c-2.8-1.9-5-4.4-6.7-7.5C276.9,184.7,276,181.5,276,178.3L276,178.3z M291.6,85.4v101.7h15.2V85.4H291.6    L291.6,85.4z M417.3,198.2h-15.5V85.4h-15.5v112.4h-15.4V85.4h-15.2v112.4h-15.5V94.1c0-3.1,0.8-6.2,2.5-9.2    c1.7-3,3.9-5.5,6.7-7.4c2.8-1.9,5.9-2.9,9.2-2.9h39.8c3,0,6,0.9,9,2.7c2.9,1.8,5.3,4.2,7.2,7.1c1.8,2.9,2.8,5.9,2.8,9V198.2    L417.3,198.2z M501.6,113.3h-15.4V85.4H471v101.7h15.2v-45.2H477v-11h24.6v48.7c0,3.3-0.9,6.4-2.7,9.2c-1.8,2.9-4.1,5.2-7.1,6.8    c-2.9,1.7-6,2.5-9.2,2.5h-9.1c-5.1,0-9.4-2-12.9-6.1c-3.5-4.1-5.3-8.7-5.3-13.8V93.3c0-3.1,0.9-6.1,2.6-9.1c1.8-2.9,4.1-5.3,7-7    c2.9-1.8,5.9-2.7,9-2.7h8.9c3.1,0,6.1,0.9,9,2.8c2.9,1.9,5.2,4.3,7,7.3c1.8,3,2.6,6,2.6,9.1V113.3L501.6,113.3z M536.3,198.2    h-15.9V93.3c0-3.2,0.9-6.3,2.7-9.2c1.8-2.9,4.2-5.3,7.1-7c2.9-1.8,6-2.6,9.1-2.6h8.6c3.3,0,6.4,0.9,9.3,2.8c2.9,1.8,5.3,4.2,7,7.2    c1.8,3,2.6,6,2.6,9.2v104.4h-15.3v-38.5h-15.2V198.2L536.3,198.2z M536,85.4v63.4h15.2V85.4H536L536,85.4z M585.9,74.6h15.5v113.3    h15.5v-13.9h15.4v24.6h-27.5c-3.3,0-6.5-0.9-9.4-2.6c-2.9-1.7-5.2-4-7-7c-1.7-2.9-2.6-6.1-2.6-9.4V74.6L585.9,74.6z M665.8,198.2    h-15.9V93.3c0-3.2,0.9-6.3,2.7-9.2c1.8-2.9,4.2-5.3,7.1-7c2.9-1.8,6-2.6,9.1-2.6h8.6c3.3,0,6.4,0.9,9.3,2.8c2.9,1.8,5.3,4.2,7,7.2    c1.8,3,2.6,6,2.6,9.2v104.4H681v-38.5h-15.2V198.2L665.8,198.2z M665.4,85.4v63.4h15.2V85.4H665.4L665.4,85.4z M730.5,114.4    l7.3,9.9l7.9-9.9V74.6h15.4v42.7l-14.6,18.9l14.6,19.6v42.1h-15.4V159l-7.6-10.9l-7.6,10.9v38.8H715v-42.1l14.2-19.3L715,117.6    v-43h15.5V114.4L730.5,114.4z M810.4,74.6h15v66.2c0,4.3-1.5,8.1-4.4,11.5c-2.9,3.4-6.5,6-10.7,7.7v38.5h-15.6v-38.8    c-4.5-1.3-8.2-3.9-11.1-7.6c-2.9-3.7-4.4-7.9-4.4-12.6V74.6h15.5v74h15.6V74.6z"/>
		<path class="st0" d="M280.9,218.3v5.3h3.7c1.3,0,2.3-0.2,2.9-0.7c0.6-0.4,0.9-1.1,0.9-2.1c0-0.8-0.3-1.4-1-1.9    c-0.6-0.4-1.6-0.7-2.8-0.7H280.9L280.9,218.3z M276,214.4h8.1c3.3,0,5.7,0.5,7.2,1.5c1.5,1,2.3,2.6,2.3,4.8c0,2.2-0.7,3.9-2.1,5    c-1.4,1.1-3.5,1.7-6.2,1.7h-4.3v7.8H276V214.4L276,214.4z M301.7,218.2v4.5h3.8c1.4,0,2.4-0.2,3-0.6c0.6-0.4,0.9-1,0.9-1.8    c0-0.8-0.3-1.3-0.9-1.7c-0.6-0.3-1.6-0.5-3-0.5H301.7L301.7,218.2z M296.9,214.4h9.1c2.8,0,4.9,0.5,6.3,1.5c1.4,1,2.1,2.5,2.1,4.5    c0,1.5-0.4,2.7-1.2,3.6c-0.8,1-1.9,1.6-3.4,1.9l5.4,9.3h-5.4l-4.9-8.6h-3.2v8.6h-4.9V214.4L296.9,214.4z M318.7,214.4h13.7    l-0.8,3.8h-8v4.2h7.3v3.8h-7.3v4.9h8.3l0.9,4h-14V214.4L318.7,214.4z M353.4,219.6l-4,2.2c-0.6-1.3-1.3-2.2-2.1-2.7    c-0.8-0.6-1.7-0.8-2.9-0.8c-1.6,0-2.8,0.6-3.7,1.7c-0.9,1.1-1.3,2.8-1.3,4.8c0,1.9,0.5,3.4,1.5,4.6c1,1.1,2.2,1.7,3.8,1.7    c1,0,1.9-0.3,2.7-0.8c0.9-0.5,1.7-1.4,2.4-2.4l3.8,2.6c-1.1,1.8-2.4,3.1-3.9,4c-1.5,0.8-3.2,1.2-5.2,1.2c-3.1,0-5.6-1-7.4-3    c-1.9-2-2.8-4.6-2.8-7.8c0-3.3,0.9-6,2.8-7.9c1.8-1.9,4.3-2.9,7.5-2.9c2.1,0,4,0.5,5.6,1.5C351.6,216.5,352.7,217.9,353.4,219.6    L353.4,219.6z M357,214.4h5v20.8h-5V214.4L357,214.4z M384,218.3l-3,2.6c-0.7-1-1.6-1.8-2.6-2.4c-1-0.5-2.1-0.8-3.4-0.8    c-1,0-1.9,0.2-2.5,0.5c-0.6,0.4-0.9,0.8-0.9,1.4c0,0.9,1.5,1.7,4.4,2.4c0.8,0.2,1.4,0.3,1.8,0.4c2.4,0.6,4.1,1.4,5.1,2.4    c1,1,1.5,2.3,1.5,4c0,2-0.8,3.7-2.4,4.9c-1.6,1.2-3.8,1.8-6.7,1.8c-2.5,0-4.6-0.4-6.1-1.3c-1.6-0.9-2.7-2.2-3.4-4l3.2-2.7    c0.7,1.4,1.5,2.4,2.6,3.1c1.1,0.7,2.4,1,3.9,1c1.2,0,2.2-0.2,2.9-0.6c0.7-0.4,1.1-1,1.1-1.6c0-1.1-1.5-2-4.5-2.6    c-0.3-0.1-0.6-0.1-0.8-0.2c-2.8-0.7-4.7-1.5-5.7-2.4c-1-0.9-1.5-2.2-1.5-3.8c0-2,0.7-3.5,2.2-4.7c1.5-1.1,3.5-1.7,6-1.7    c2,0,3.7,0.3,5.1,1C381.6,215.7,382.9,216.8,384,218.3L384,218.3z M388.4,214.4h5v20.8h-5V214.4L388.4,214.4z M407.6,218.2    c-1.5,0-2.7,0.6-3.7,1.8c-1,1.2-1.5,2.8-1.5,4.7c0,1.9,0.5,3.5,1.5,4.7c1,1.2,2.2,1.8,3.7,1.8c1.5,0,2.7-0.6,3.7-1.8    c1-1.2,1.5-2.8,1.5-4.7c0-1.9-0.5-3.5-1.5-4.7C410.3,218.9,409.1,218.2,407.6,218.2L407.6,218.2z M407.5,213.9c3,0,5.5,1,7.5,3.1    c1.9,2,2.9,4.6,2.9,7.8c0,3.2-1,5.8-2.9,7.8c-1.9,2-4.4,3-7.5,3c-3,0-5.5-1-7.4-3c-1.9-2-2.9-4.6-2.9-7.8c0-3.2,1-5.8,2.9-7.8    C402.1,215,404.5,213.9,407.5,213.9L407.5,213.9z M421.7,214.4h4.9l7.9,12.5v-12.5h4.6v20.8h-4.6l-8.2-13.1v13.1h-4.6V214.4    L421.7,214.4z M452,214.4h7.3l3.2,13.2l3.1-13.2h7.3v20.8h-4.2v-17.4l-4.2,17.4h-3.9l-4.2-17.6v17.6H452V214.4L452,214.4z     M487.1,218.2c-1.5,0-2.7,0.6-3.7,1.8c-1,1.2-1.5,2.8-1.5,4.7c0,1.9,0.5,3.5,1.5,4.7c1,1.2,2.2,1.8,3.7,1.8c1.5,0,2.7-0.6,3.7-1.8    c1-1.2,1.5-2.8,1.5-4.7c0-1.9-0.5-3.5-1.5-4.7C489.8,218.9,488.6,218.2,487.1,218.2L487.1,218.2z M487.1,213.9c3,0,5.5,1,7.4,3.1    c1.9,2,2.9,4.6,2.9,7.8c0,3.2-1,5.8-2.9,7.8c-1.9,2-4.4,3-7.5,3c-3,0-5.5-1-7.4-3c-1.9-2-2.9-4.6-2.9-7.8c0-3.2,1-5.8,2.9-7.8    C481.6,215,484,213.9,487.1,213.9L487.1,213.9z M500.8,214.4h4.9v12.9c0,1.3,0.3,2.2,0.9,2.9c0.6,0.6,1.6,0.9,2.9,0.9    c1.3,0,2.3-0.3,3-0.9c0.6-0.6,0.9-1.6,0.9-2.9v-12.9h4.9v14c0,2.4-0.7,4.2-2.2,5.4c-1.5,1.2-3.7,1.8-6.6,1.8c-2.9,0-5-0.6-6.5-1.8    c-1.5-1.2-2.2-3-2.2-5.4V214.4L500.8,214.4z M523.4,214.4h5v16.5h9v4.2h-14V214.4L523.4,214.4z M545.2,218.8v12h3.6    c1.6,0,2.8-0.5,3.6-1.5c0.8-1,1.2-2.5,1.2-4.5c0-1.9-0.4-3.3-1.2-4.4c-0.8-1.1-1.8-1.6-3.1-1.6H545.2L545.2,218.8z M540.3,214.4    h9.1c2.9,0,5.2,0.9,6.9,2.8c1.6,1.8,2.5,4.4,2.5,7.6c0,2-0.3,3.8-0.9,5.3c-0.6,1.5-1.5,2.7-2.7,3.6c-0.7,0.5-1.4,0.9-2.2,1.1    c-0.8,0.2-1.9,0.3-3.4,0.3h-0.2h-9V214.4L540.3,214.4z M587.5,219.6l-4,2.2c-0.6-1.3-1.3-2.2-2.1-2.7c-0.8-0.6-1.7-0.8-2.9-0.8    c-1.6,0-2.8,0.6-3.7,1.7c-0.9,1.1-1.3,2.8-1.3,4.8c0,1.9,0.5,3.4,1.5,4.6c1,1.1,2.2,1.7,3.8,1.7c1,0,1.9-0.3,2.7-0.8    c0.9-0.5,1.7-1.4,2.4-2.4l3.8,2.6c-1.1,1.8-2.4,3.1-3.9,4c-1.5,0.8-3.2,1.2-5.2,1.2c-3.1,0-5.6-1-7.4-3c-1.9-2-2.8-4.6-2.8-7.8    c0-3.3,0.9-6,2.8-7.9c1.8-1.9,4.3-2.9,7.5-2.9c2.1,0,4,0.5,5.6,1.5C585.7,216.5,586.8,217.9,587.5,219.6L587.5,219.6z     M595.8,218.2v4.5h3.8c1.4,0,2.4-0.2,3-0.6c0.6-0.4,0.9-1,0.9-1.8c0-0.8-0.3-1.3-0.9-1.7c-0.6-0.3-1.6-0.5-3-0.5H595.8    L595.8,218.2z M591,214.4h9.1c2.8,0,4.9,0.5,6.3,1.5c1.4,1,2.1,2.5,2.1,4.5c0,1.5-0.4,2.7-1.2,3.6c-0.8,1-1.9,1.6-3.4,1.9l5.4,9.3    H604l-4.9-8.6h-3.2v8.6H591V214.4L591,214.4z M620.4,218.4l-2.7,8.6h5.7L620.4,218.4L620.4,218.4z M617.4,214.4h6.1l7.7,20.8h-5    l-1.4-4h-8.4l-1.3,4h-4.9L617.4,214.4L617.4,214.4z M633.8,214.4h14.3l-0.8,3.8h-8.6v4.8h7.5v4h-7.5v8.2h-4.9V214.4L633.8,214.4z     M649.1,214.4h19.2v4.3h-7.1v16.4h-5v-16.4h-7.1V214.4L649.1,214.4z M688.4,218.3l-3,2.6c-0.7-1-1.6-1.8-2.6-2.4    c-1-0.5-2.1-0.8-3.4-0.8c-1,0-1.9,0.2-2.5,0.5c-0.6,0.4-0.9,0.8-0.9,1.4c0,0.9,1.5,1.7,4.4,2.4c0.8,0.2,1.4,0.3,1.8,0.4    c2.4,0.6,4.1,1.4,5.1,2.4c1,1,1.5,2.3,1.5,4c0,2-0.8,3.7-2.4,4.9c-1.6,1.2-3.8,1.8-6.7,1.8c-2.5,0-4.6-0.4-6.1-1.3    c-1.6-0.9-2.7-2.2-3.4-4l3.2-2.7c0.7,1.4,1.5,2.4,2.6,3.1c1.1,0.7,2.4,1,3.9,1c1.2,0,2.2-0.2,2.9-0.6c0.7-0.4,1.1-1,1.1-1.6    c0-1.1-1.5-2-4.5-2.6c-0.3-0.1-0.6-0.1-0.8-0.2c-2.8-0.7-4.7-1.5-5.7-2.4c-1-0.9-1.5-2.2-1.5-3.8c0-2,0.7-3.5,2.2-4.7    c1.5-1.1,3.5-1.7,6-1.7c2,0,3.7,0.3,5.1,1C686,215.7,687.3,216.8,688.4,218.3L688.4,218.3z M705,218.3v5.3h3.7    c1.3,0,2.3-0.2,2.9-0.7c0.6-0.4,0.9-1.1,0.9-2.1c0-0.8-0.3-1.4-1-1.9c-0.6-0.4-1.6-0.7-2.8-0.7H705L705,218.3z M700.1,214.4h8.1    c3.3,0,5.7,0.5,7.2,1.5c1.5,1,2.3,2.6,2.3,4.8c0,2.2-0.7,3.9-2.1,5c-1.4,1.1-3.5,1.7-6.2,1.7H705v7.8h-4.9V214.4L700.1,214.4z     M718,214.4h5.2l5.9,14.6l5.4-14.6h5.1l-8.1,20.8h-4.9L718,214.4L718,214.4z M740.2,214.4h19.2v4.3h-7.1v16.4h-5v-16.4h-7.1V214.4    L740.2,214.4z M757.6,230.7v4.5h4.1v-4.5H757.6L757.6,230.7z M773.5,214.4h5v16.5h9v4.2h-14V214.4L773.5,214.4z M785.3,214.4v4.3    h7.1v16.4h5v-16.4h7.1v-4.3H785.3L785.3,214.4z M812.9,218.8v12h3.6c1.6,0,2.8-0.5,3.6-1.5c0.8-1,1.2-2.5,1.2-4.5    c0-1.9-0.4-3.3-1.2-4.4c-0.8-1.1-1.8-1.6-3.1-1.6H812.9L812.9,218.8z M808,214.4h9.1c2.9,0,5.2,0.9,6.9,2.8    c1.6,1.8,2.5,4.4,2.5,7.6c0,2-0.3,3.8-0.9,5.3c-0.6,1.5-1.5,2.7-2.7,3.6c-0.7,0.5-1.4,0.9-2.2,1.1c-0.8,0.2-1.9,0.3-3.4,0.3H817    h-9V214.4L808,214.4z M829.2,230.7h4.1v4.5h-4.1V230.7z"/>
	</g>
	<g>
		<path class="st0" d="M154.4,111.9h-20.1V70.4H110v145.7h24.4v-70.7h-14.5v-10.2h34.5v68.1c0,14-9.9,26-23.8,26h-19    c-13.4,0-22-10.8-22-25.7V84.1c0-15.2,10-26.2,24.7-26.2h19.5c13.7,0,20.6,13,20.6,24.8V111.9z"/>
		<path class="st0" d="M122,243.9c7.3,0,13.3,6,13.3,13.3c0,7.3-6,13.3-13.3,13.3c-7.3,0-13.3-6-13.3-13.3    C108.7,249.8,114.7,243.9,122,243.9z"/>
		<g>
			<path class="st0" d="M188.7,185.8L188.7,185.8L188.7,185.8c6.5-9.8,12.3-19.8,17.3-29.7c5-9.9,9.2-19.9,12.5-29.6     c17.2-49.5,13.5-94.2-13-111.9l0,0l0,0v0c-18.3-12.2-44.4-9.4-71.6,5c-27.7,14.6-56.6,41.2-80,76.2l0,0l0,0l0,0     c-6.5,9.8-12.3,19.7-17.3,29.7c-5,9.9-9.2,19.9-12.5,29.6C7,204.6,10.6,249.3,37.1,267l0,0l0,0v0c5.1,3.4,10.7,5.6,16.8,6.8     c6.2,1.2,12.8,1.2,19.8,0.3c9.1-1.3,18.7-4.2,28.6-8.8c0.7,1.6,1.5,3.1,2.5,4.5c-10.5,4.9-20.7,8.1-30.4,9.4     c-7.5,1-14.7,1-21.4-0.3c-6.8-1.3-13.1-3.8-18.7-7.5l0,0l0,0v0c-28.6-19.1-32.9-66.1-15-117.8c3.4-9.9,7.7-20.1,12.8-30.2     C37.1,113.1,43,103,49.7,93l0,0l0,0l0,0l0,0l0,0l0,0c23.8-35.7,53.4-62.9,81.8-77.9c28.9-15.3,56.9-18.1,76.9-4.7l0,0l0,0v0     c28.6,19.1,32.9,66.1,15,117.8c-3.4,9.9-7.7,20.1-12.8,30.2c-5.1,10.1-10.9,20.2-17.6,30.2l0,0l0,0l0,0     c-15.6,23.4-33.8,43.2-52.4,58.2c-0.8-1.5-1.8-2.9-3-4.1C155.8,228,173.4,208.7,188.7,185.8L188.7,185.8L188.7,185.8z M49.7,93     L49.7,93C49.7,93,49.7,93,49.7,93C49.7,93,49.7,93,49.7,93z"/>
		</g>
	</g>
</g>
</svg>